<?xml version="1.0" encoding="iso-8859-1"?>
<!-- Uploaded to: SVG Repo, www.svgrepo.com, Generator: SVG Repo Mixer Tools -->
<svg version="1.1" id="Layer_1" xmlns="http://www.w3.org/2000/svg" xmlns:xlink="http://www.w3.org/1999/xlink" 
	 viewBox="0 0 512 512" xml:space="preserve">
<g>
	<rect x="72.215" y="456.078" style="fill:#333E48;" width="48.563" height="47.659"/>
	<rect x="391.221" y="456.078" style="fill:#333E48;" width="48.574" height="47.659"/>
</g>
<path style="fill:#5C6670;" d="M484.003,29.709c0-11.797-9.651-21.447-21.444-21.447H49.441c-11.797,0-21.446,9.65-21.446,21.447
	v413.119c0,11.797,9.649,21.446,21.446,21.446h413.118c11.794,0,21.444-9.649,21.444-21.446L484.003,29.709L484.003,29.709z"/>
<circle style="fill:#333E48;" cx="328.083" cy="236.269" r="51.229"/>
<polygon style="fill:#FF5959;" points="346.992,226.017 349.036,196.672 325.92,214.863 "/>
<circle style="fill:#333E48;" cx="328.083" cy="236.269" r="20.582"/>
<path style="fill:#1E252B;" d="M249.393,244.531h12.575c4.085,32.858,32.164,58.376,66.111,58.376
	c36.746,0,66.639-29.894,66.639-66.639c0-36.746-29.894-66.639-66.639-66.639c-33.948,0-62.026,25.518-66.111,58.376h-12.575
	c-4.563,0-8.263,3.698-8.263,8.263C241.13,240.832,244.829,244.531,249.393,244.531z M328.079,186.155
	c27.633,0,50.114,22.481,50.114,50.114s-22.481,50.114-50.114,50.114c-27.634,0-50.116-22.481-50.116-50.114
	S300.445,186.155,328.079,186.155z M462.559,0H49.441C33.06,0,19.733,13.328,19.733,29.709v413.119
	c0,16.381,13.327,29.708,29.708,29.708h14.506v31.201c0,4.564,3.699,8.263,8.263,8.263h48.567c4.563,0,8.263-3.698,8.263-8.263
	v-31.201h253.911v31.201c0,4.564,3.698,8.263,8.263,8.263h48.567c4.564,0,8.263-3.698,8.263-8.263v-31.201h14.517
	c16.38,0,29.707-13.327,29.707-29.708V29.709C492.266,13.328,478.939,0,462.559,0z M112.514,495.475H80.472v-22.938h32.042V495.475z
	 M431.516,495.475h-32.042v-22.938h32.042L431.516,495.475L431.516,495.475z M475.741,442.828c0,7.269-5.913,13.183-13.182,13.183
	H49.441c-7.269,0-13.183-5.914-13.183-13.183V29.709c0-7.27,5.914-13.184,13.183-13.184h413.118c7.269,0,13.182,5.914,13.182,13.184
	L475.741,442.828L475.741,442.828z M422.176,61.83H89.826c-4.563,0-8.263,3.699-8.263,8.263v31.481h-7.262V167.4h7.262v137.738
	h-7.262v65.826h7.262v31.481c0,4.563,3.699,8.263,8.263,8.263h332.35c4.563,0,8.263-3.699,8.263-8.263V70.093
	C430.439,65.53,426.74,61.83,422.176,61.83z M413.914,394.182H98.089V78.356h315.825V394.182z M307.033,255.966l-7.631,14.025
	l14.516,7.899l7.392-13.585c1.224,0.295,2.477,0.519,3.756,0.652l3.409,15.577L344.616,277l-3.307-15.113
	c1.052-0.544,2.069-1.15,3.041-1.816l12.69,9.687l10.027-13.134l-12.311-9.399c0.397-0.964,0.74-1.953,1.031-2.965l15.937-0.626
	l-0.648-16.512l-15.446,0.607c-0.293-0.942-0.633-1.863-1.018-2.763l11.961-10.543l-10.929-12.396l-11.607,10.232
	c-0.892-0.595-1.821-1.138-2.78-1.632l2.462-15.762l-16.327-2.549l-2.386,15.276c-1.613,0.171-3.185,0.48-4.708,0.909l-8.913-13.227
	l-13.704,9.235l8.652,12.84c-0.641,0.736-1.245,1.503-1.81,2.303l-15.278-4.632l-4.793,15.815l14.806,4.488
	c-0.01,0.314-0.024,0.628-0.024,0.944c0,0.67,0.031,1.333,0.076,1.993l-14.762,6.05l6.268,15.29l14.323-5.872
	C305.734,254.508,306.367,255.253,307.033,255.966z M328.079,223.951c6.793,0,12.319,5.526,12.319,12.318
	c0,6.794-5.526,12.321-12.319,12.321c-6.793,0-12.319-5.527-12.319-12.321C315.76,229.477,321.286,223.951,328.079,223.951z"/>
</svg>